<?xml version="1.0" encoding="UTF-8" standalone="no"?>
<!DOCTYPE svg PUBLIC "-//W3C//DTD SVG 1.1//EN"
 "http://www.w3.org/Graphics/SVG/1.1/DTD/svg11.dtd">
<!-- Generated by graphviz version 5.0.0 (20220707.1540)
 -->
<!-- Title: DB入門サイト Pages: 1 -->
<svg width="573pt" height="598pt"
 viewBox="0.00 0.00 572.60 597.60" xmlns="http://www.w3.org/2000/svg" xmlns:xlink="http://www.w3.org/1999/xlink">
<g id="graph0" class="graph" transform="scale(1 1) rotate(0) translate(28.8 568.8)">
<title>DB入門サイト</title>
<polygon fill="white" stroke="transparent" points="-28.8,28.8 -28.8,-568.8 543.8,-568.8 543.8,28.8 -28.8,28.8"/>
<text text-anchor="middle" x="257.5" y="-525.6" font-family="Arial Bold" font-size="13.00">DB入門サイト ER図</text>
<!-- m_ActiveStorage::Attachment -->
<g id="node1" class="node">
<title>m_ActiveStorage::Attachment</title>
<path fill="none" stroke="black" d="M180.5,-0.5C180.5,-0.5 309.5,-0.5 309.5,-0.5 315.5,-0.5 321.5,-6.5 321.5,-12.5 321.5,-12.5 321.5,-96.5 321.5,-96.5 321.5,-102.5 315.5,-108.5 309.5,-108.5 309.5,-108.5 180.5,-108.5 180.5,-108.5 174.5,-108.5 168.5,-102.5 168.5,-96.5 168.5,-96.5 168.5,-12.5 168.5,-12.5 168.5,-6.5 174.5,-0.5 180.5,-0.5"/>
<text text-anchor="start" x="174" y="-95.7" font-family="Arial Bold" font-size="11.00">ActiveStorage::Attachment</text>
<polyline fill="none" stroke="black" points="168.5,-88.5 321.5,-88.5 "/>
<text text-anchor="start" x="180" y="-75.5" font-family="Arial" font-size="10.00">blob_id </text>
<text text-anchor="start" x="214" y="-75.5" font-family="Arial Italic" font-size="10.00" fill="#999999">integer ∗ FK</text>
<text text-anchor="start" x="180" y="-62.5" font-family="Arial" font-size="10.00">created_at </text>
<text text-anchor="start" x="229" y="-62.5" font-family="Arial Italic" font-size="10.00" fill="#999999">datetime ∗</text>
<text text-anchor="start" x="180" y="-49.5" font-family="Arial" font-size="10.00">id </text>
<text text-anchor="start" x="191" y="-49.5" font-family="Arial Italic" font-size="10.00" fill="#999999">integer PK</text>
<text text-anchor="start" x="180" y="-36.5" font-family="Arial" font-size="10.00">name </text>
<text text-anchor="start" x="208" y="-36.5" font-family="Arial Italic" font-size="10.00" fill="#999999">string ∗</text>
<text text-anchor="start" x="180" y="-23.5" font-family="Arial" font-size="10.00">record_id </text>
<text text-anchor="start" x="223" y="-23.5" font-family="Arial Italic" font-size="10.00" fill="#999999">integer ∗ FK</text>
<text text-anchor="start" x="180" y="-10.5" font-family="Arial" font-size="10.00">record_type </text>
<text text-anchor="start" x="235" y="-10.5" font-family="Arial Italic" font-size="10.00" fill="#999999">string ∗</text>
</g>
<!-- m_ActiveStorage::Blob -->
<g id="node2" class="node">
<title>m_ActiveStorage::Blob</title>
<path fill="none" stroke="black" d="M12,-165C12,-165 132,-165 132,-165 138,-165 144,-171 144,-177 144,-177 144,-287 144,-287 144,-293 138,-299 132,-299 132,-299 12,-299 12,-299 6,-299 0,-293 0,-287 0,-287 0,-177 0,-177 0,-171 6,-165 12,-165"/>
<text text-anchor="start" x="16.5" y="-286.2" font-family="Arial Bold" font-size="11.00">ActiveStorage::Blob</text>
<polyline fill="none" stroke="black" points="0,-279 144,-279 "/>
<text text-anchor="start" x="7" y="-266" font-family="Arial" font-size="10.00">byte_size </text>
<text text-anchor="start" x="53" y="-266" font-family="Arial Italic" font-size="10.00" fill="#999999">integer ∗</text>
<text text-anchor="start" x="7" y="-253" font-family="Arial" font-size="10.00">checksum </text>
<text text-anchor="start" x="56" y="-253" font-family="Arial Italic" font-size="10.00" fill="#999999">string ∗</text>
<text text-anchor="start" x="7" y="-240" font-family="Arial" font-size="10.00">content_type </text>
<text text-anchor="start" x="67" y="-240" font-family="Arial Italic" font-size="10.00" fill="#999999">string</text>
<text text-anchor="start" x="7" y="-227" font-family="Arial" font-size="10.00">created_at </text>
<text text-anchor="start" x="56" y="-227" font-family="Arial Italic" font-size="10.00" fill="#999999">datetime ∗</text>
<text text-anchor="start" x="7" y="-214" font-family="Arial" font-size="10.00">filename </text>
<text text-anchor="start" x="47" y="-214" font-family="Arial Italic" font-size="10.00" fill="#999999">string ∗</text>
<text text-anchor="start" x="7" y="-201" font-family="Arial" font-size="10.00">id </text>
<text text-anchor="start" x="18" y="-201" font-family="Arial Italic" font-size="10.00" fill="#999999">integer PK</text>
<text text-anchor="start" x="7" y="-188" font-family="Arial" font-size="10.00">key </text>
<text text-anchor="start" x="26" y="-188" font-family="Arial Italic" font-size="10.00" fill="#999999">string ∗</text>
<text text-anchor="start" x="7" y="-175" font-family="Arial" font-size="10.00">metadata </text>
<text text-anchor="start" x="51" y="-175" font-family="Arial Italic" font-size="10.00" fill="#999999">text</text>
</g>
<!-- m_ActiveStorage::Blob&#45;&gt;m_ActiveStorage::Attachment -->
<g id="edge1" class="edge">
<title>m_ActiveStorage::Blob&#45;&gt;m_ActiveStorage::Attachment</title>
<path fill="none" stroke="black" d="M137.4,-164.65C155.68,-146.11 175.29,-126.21 192.7,-108.55"/>
</g>
<!-- m_Article -->
<g id="node3" class="node">
<title>m_Article</title>
<path fill="none" stroke="black" d="M185,-145.5C185,-145.5 305,-145.5 305,-145.5 311,-145.5 317,-151.5 317,-157.5 317,-157.5 317,-306.5 317,-306.5 317,-312.5 311,-318.5 305,-318.5 305,-318.5 185,-318.5 185,-318.5 179,-318.5 173,-312.5 173,-306.5 173,-306.5 173,-157.5 173,-157.5 173,-151.5 179,-145.5 185,-145.5"/>
<text text-anchor="start" x="225.5" y="-305.7" font-family="Arial Bold" font-size="11.00">Article</text>
<polyline fill="none" stroke="black" points="173,-298.5 317,-298.5 "/>
<text text-anchor="start" x="180" y="-285" font-family="Arial" font-size="10.00">article_order </text>
<text text-anchor="start" x="237" y="-285" font-family="Arial Italic" font-size="10.00" fill="#999999">integer ∗</text>
<text text-anchor="start" x="180" y="-272" font-family="Arial" font-size="10.00">category_id </text>
<text text-anchor="start" x="234" y="-272" font-family="Arial Italic" font-size="10.00" fill="#999999">integer ∗ FK</text>
<text text-anchor="start" x="180" y="-259" font-family="Arial" font-size="10.00">content </text>
<text text-anchor="start" x="216" y="-259" font-family="Arial Italic" font-size="10.00" fill="#999999">text ∗</text>
<text text-anchor="start" x="180" y="-246" font-family="Arial" font-size="10.00">created_at </text>
<text text-anchor="start" x="229" y="-246" font-family="Arial Italic" font-size="10.00" fill="#999999">datetime (6,0) ∗</text>
<text text-anchor="start" x="180" y="-233" font-family="Arial" font-size="10.00">id </text>
<text text-anchor="start" x="191" y="-233" font-family="Arial Italic" font-size="10.00" fill="#999999">integer PK</text>
<text text-anchor="start" x="180" y="-220" font-family="Arial" font-size="10.00">name </text>
<text text-anchor="start" x="208" y="-220" font-family="Arial Italic" font-size="10.00" fill="#999999">string ∗ U</text>
<text text-anchor="start" x="180" y="-207" font-family="Arial" font-size="10.00">slug </text>
<text text-anchor="start" x="202" y="-207" font-family="Arial Italic" font-size="10.00" fill="#999999">string ∗</text>
<text text-anchor="start" x="180" y="-194" font-family="Arial" font-size="10.00">status </text>
<text text-anchor="start" x="211" y="-194" font-family="Arial Italic" font-size="10.00" fill="#999999">string ∗</text>
<text text-anchor="start" x="180" y="-181" font-family="Arial" font-size="10.00">summary </text>
<text text-anchor="start" x="224" y="-181" font-family="Arial Italic" font-size="10.00" fill="#999999">text</text>
<text text-anchor="start" x="180" y="-168" font-family="Arial" font-size="10.00">title </text>
<text text-anchor="start" x="199" y="-168" font-family="Arial Italic" font-size="10.00" fill="#999999">string ∗ U</text>
<text text-anchor="start" x="180" y="-155" font-family="Arial" font-size="10.00">updated_at </text>
<text text-anchor="start" x="232" y="-155" font-family="Arial Italic" font-size="10.00" fill="#999999">datetime (6,0) ∗</text>
</g>
<!-- m_Article&#45;&gt;m_ActiveStorage::Attachment -->
<g id="edge2" class="edge">
<title>m_Article&#45;&gt;m_ActiveStorage::Attachment</title>
<path fill="none" stroke="black" d="M245,-145.31C245,-132.78 245,-120.19 245,-108.57"/>
</g>
<!-- m_Attachment -->
<g id="node4" class="node">
<title>m_Attachment</title>
<path fill="none" stroke="black" d="M358,-197.5C358,-197.5 478,-197.5 478,-197.5 484,-197.5 490,-203.5 490,-209.5 490,-209.5 490,-254.5 490,-254.5 490,-260.5 484,-266.5 478,-266.5 478,-266.5 358,-266.5 358,-266.5 352,-266.5 346,-260.5 346,-254.5 346,-254.5 346,-209.5 346,-209.5 346,-203.5 352,-197.5 358,-197.5"/>
<text text-anchor="start" x="385.5" y="-253.7" font-family="Arial Bold" font-size="11.00">Attachment</text>
<polyline fill="none" stroke="black" points="346,-246.5 490,-246.5 "/>
<text text-anchor="start" x="353" y="-233" font-family="Arial" font-size="10.00">created_at </text>
<text text-anchor="start" x="402" y="-233" font-family="Arial Italic" font-size="10.00" fill="#999999">datetime (6,0) ∗</text>
<text text-anchor="start" x="353" y="-220" font-family="Arial" font-size="10.00">id </text>
<text text-anchor="start" x="364" y="-220" font-family="Arial Italic" font-size="10.00" fill="#999999">integer PK</text>
<text text-anchor="start" x="353" y="-207" font-family="Arial" font-size="10.00">updated_at </text>
<text text-anchor="start" x="405" y="-207" font-family="Arial Italic" font-size="10.00" fill="#999999">datetime (6,0) ∗</text>
</g>
<!-- m_Attachment&#45;&gt;m_ActiveStorage::Attachment -->
<g id="edge3" class="edge">
<title>m_Attachment&#45;&gt;m_ActiveStorage::Attachment</title>
<path fill="none" stroke="black" d="M384.64,-197.16C359.9,-172.06 325.69,-137.35 297.32,-108.57"/>
</g>
<!-- m_Category -->
<g id="node5" class="node">
<title>m_Category</title>
<path fill="none" stroke="black" d="M184,-355.5C184,-355.5 306,-355.5 306,-355.5 312,-355.5 318,-361.5 318,-367.5 318,-367.5 318,-490.5 318,-490.5 318,-496.5 312,-502.5 306,-502.5 306,-502.5 184,-502.5 184,-502.5 178,-502.5 172,-496.5 172,-490.5 172,-490.5 172,-367.5 172,-367.5 172,-361.5 178,-355.5 184,-355.5"/>
<text text-anchor="start" x="218.5" y="-489.7" font-family="Arial Bold" font-size="11.00">Category</text>
<polyline fill="none" stroke="black" points="172,-482.5 318,-482.5 "/>
<text text-anchor="start" x="179" y="-469" font-family="Arial" font-size="10.00">category_order </text>
<text text-anchor="start" x="247" y="-469" font-family="Arial Italic" font-size="10.00" fill="#999999">integer ∗</text>
<text text-anchor="start" x="179" y="-456" font-family="Arial" font-size="10.00">created_at </text>
<text text-anchor="start" x="228" y="-456" font-family="Arial Italic" font-size="10.00" fill="#999999">datetime (6,0) ∗</text>
<text text-anchor="start" x="179" y="-443" font-family="Arial" font-size="10.00">id </text>
<text text-anchor="start" x="190" y="-443" font-family="Arial Italic" font-size="10.00" fill="#999999">integer PK</text>
<text text-anchor="start" x="179" y="-430" font-family="Arial" font-size="10.00">name </text>
<text text-anchor="start" x="207" y="-430" font-family="Arial Italic" font-size="10.00" fill="#999999">string ∗ U</text>
<text text-anchor="start" x="179" y="-417" font-family="Arial" font-size="10.00">parent_category_id </text>
<text text-anchor="start" x="265" y="-417" font-family="Arial Italic" font-size="10.00" fill="#999999">integer FK</text>
<text text-anchor="start" x="179" y="-404" font-family="Arial" font-size="10.00">slug </text>
<text text-anchor="start" x="201" y="-404" font-family="Arial Italic" font-size="10.00" fill="#999999">string ∗</text>
<text text-anchor="start" x="179" y="-391" font-family="Arial" font-size="10.00">summary </text>
<text text-anchor="start" x="223" y="-391" font-family="Arial Italic" font-size="10.00" fill="#999999">text</text>
<text text-anchor="start" x="179" y="-378" font-family="Arial" font-size="10.00">title </text>
<text text-anchor="start" x="198" y="-378" font-family="Arial Italic" font-size="10.00" fill="#999999">string ∗ U</text>
<text text-anchor="start" x="179" y="-365" font-family="Arial" font-size="10.00">updated_at </text>
<text text-anchor="start" x="231" y="-365" font-family="Arial Italic" font-size="10.00" fill="#999999">datetime (6,0) ∗</text>
</g>
<!-- m_Category&#45;&gt;m_Article -->
<g id="edge4" class="edge">
<title>m_Category&#45;&gt;m_Article</title>
<path fill="none" stroke="black" d="M245,-355.39C245,-346.37 245,-337.06 245,-327.77"/>
<polygon fill="black" stroke="black" points="248.15,-327.51 245,-318.51 241.85,-327.51 248.15,-327.51"/>
</g>
<!-- m_Category&#45;&gt;m_Category -->
<g id="edge5" class="edge">
<title>m_Category&#45;&gt;m_Category</title>
<path fill="none" stroke="black" d="M318.35,-464.85C334.9,-461.62 347,-449.67 347,-429 347,-412.2 339.01,-401.17 327.14,-395.88"/>
<polygon fill="black" stroke="black" points="327.88,-392.82 318.35,-393.15 326.01,-398.83 327.88,-392.82"/>
</g>
<!-- m_User -->
<g id="node6" class="node">
<title>m_User</title>
<path fill="none" stroke="black" d="M377,-362C377,-362 503,-362 503,-362 509,-362 515,-368 515,-374 515,-374 515,-484 515,-484 515,-490 509,-496 503,-496 503,-496 377,-496 377,-496 371,-496 365,-490 365,-484 365,-484 365,-374 365,-374 365,-368 371,-362 377,-362"/>
<text text-anchor="start" x="425.5" y="-483.2" font-family="Arial Bold" font-size="11.00">User</text>
<polyline fill="none" stroke="black" points="365,-476 515,-476 "/>
<text text-anchor="start" x="372" y="-463" font-family="Arial" font-size="10.00">admin </text>
<text text-anchor="start" x="402" y="-463" font-family="Arial Italic" font-size="10.00" fill="#999999">boolean</text>
<text text-anchor="start" x="372" y="-450" font-family="Arial" font-size="10.00">created_at </text>
<text text-anchor="start" x="421" y="-450" font-family="Arial Italic" font-size="10.00" fill="#999999">datetime (6,0) ∗</text>
<text text-anchor="start" x="372" y="-437" font-family="Arial" font-size="10.00">email </text>
<text text-anchor="start" x="399" y="-437" font-family="Arial Italic" font-size="10.00" fill="#999999">string ∗ U</text>
<text text-anchor="start" x="372" y="-424" font-family="Arial" font-size="10.00">encrypted_password </text>
<text text-anchor="start" x="466" y="-424" font-family="Arial Italic" font-size="10.00" fill="#999999">string ∗</text>
<text text-anchor="start" x="372" y="-411" font-family="Arial" font-size="10.00">id </text>
<text text-anchor="start" x="383" y="-411" font-family="Arial Italic" font-size="10.00" fill="#999999">integer PK</text>
<text text-anchor="start" x="372" y="-398" font-family="Arial" font-size="10.00">name </text>
<text text-anchor="start" x="400" y="-398" font-family="Arial Italic" font-size="10.00" fill="#999999">string ∗</text>
<text text-anchor="start" x="372" y="-385" font-family="Arial" font-size="10.00">remember_created_at </text>
<text text-anchor="start" x="470" y="-385" font-family="Arial Italic" font-size="10.00" fill="#999999">datetime</text>
<text text-anchor="start" x="372" y="-372" font-family="Arial" font-size="10.00">updated_at </text>
<text text-anchor="start" x="424" y="-372" font-family="Arial Italic" font-size="10.00" fill="#999999">datetime (6,0) ∗</text>
</g>
</g>
</svg>
