<?xml version="1.0" standalone="no"?>
<!DOCTYPE svg PUBLIC "-//W3C//DTD SVG 20010904//EN"
 "http://www.w3.org/TR/2001/REC-SVG-20010904/DTD/svg10.dtd">
<svg version="1.0" xmlns="http://www.w3.org/2000/svg"
 width="282.000000pt" height="282.000000pt" viewBox="0 0 282.000000 282.000000"
 preserveAspectRatio="xMidYMid meet">
<metadata>
Created by potrace 1.14, written by Peter Selinger 2001-2017
</metadata>
<g transform="translate(0.000000,282.000000) scale(0.100000,-0.100000)"
fill="#000000" stroke="none">
<path d="M360 1435 l0 -575 263 0 c295 0 360 9 458 61 113 60 195 187 225 350
20 100 14 290 -12 383 -37 139 -131 263 -236 311 -81 37 -161 45 -440 45
l-258 0 0 -575z m568 361 c53 -23 106 -84 129 -150 14 -41 18 -83 18 -211 0
-199 -15 -259 -80 -321 -55 -53 -102 -64 -275 -64 l-130 0 0 386 0 386 148 -4
c111 -3 157 -9 190 -22z"/>
<path d="M1520 1435 l0 -577 348 4 c335 4 349 5 406 28 80 31 146 97 176 176
31 81 31 182 1 246 -27 56 -94 121 -144 139 -21 7 -37 15 -37 19 1 3 18 17 40
32 77 53 121 161 106 259 -15 98 -103 198 -204 230 -24 8 -150 14 -364 16
l-328 5 0 -577z m599 369 c95 -38 105 -164 18 -228 -26 -19 -45 -21 -208 -24
l-179 -4 0 136 0 136 165 0 c127 0 174 -4 204 -16z m40 -469 c49 -29 73 -67
78 -122 5 -59 -19 -109 -68 -138 -30 -18 -56 -20 -226 -23 l-193 -4 0 157 0
157 188 -3 c165 -4 191 -6 221 -24z"/>
</g>
</svg>
